{
  "accessors": [
    {
      "bufferView": 2,
      "componentType": 5126,
      "count": 30834,
      "max": [
        0.19262364506721497,
        4.161806583404541,
        0.10118497908115387
      ],
      "min": [
        -0.19262364506721497,
        -3.7475926876068115,
        -0.10118497908115387
      ],
      "type": "VEC3"
    },
    {
      "bufferView": 2,
      "byteOffset": 370008,
      "componentType": 5126,
      "count": 30834,
      "max": [
        0.9999699592590332,
        0.9994124174118042,
        1.0
      ],
      "min": [
        -0.9999699592590332,
        -0.9570938944816589,
        -1.0
      ],
      "type": "VEC3"
    },
    {
      "bufferView": 1,
      "componentType": 5126,
      "count": 30834,
      "max": [
        0.9808818101882935,
        0.9717654585838318
      ],
      "min": [
        0.0015198340406641364,
        0.013999046757817268
      ],
      "type": "VEC2"
    },
    {
      "bufferView": 0,
      "componentType": 5125,
      "count": 57240,
      "type": "SCALAR"
    }
  ],
  "asset": {
    "extras": {
      "author": "Mr. The Rich (https://sketchfab.com/MrTheRich)",
      "license": "CC-BY-4.0 (http://creativecommons.org/licenses/by/4.0/)",
      "source": "https://sketchfab.com/3d-models/lance-of-longinus-c99cc77024a141beb6555778fd577d0a",
      "title": "Lance of Longinus"
    },
    "generator": "Sketchfab-12.68.0",
    "version": "2.0"
  },
  "bufferViews": [
    {
      "buffer": 0,
      "byteLength": 228960,
      "name": "floatBufferViews",
      "target": 34963
    },
    {
      "buffer": 0,
      "byteLength": 246672,
      "byteOffset": 228960,
      "byteStride": 8,
      "name": "floatBufferViews",
      "target": 34962
    },
    {
      "buffer": 0,
      "byteLength": 740016,
      "byteOffset": 475632,
      "byteStride": 12,
      "name": "floatBufferViews",
      "target": 34962
    }
  ],
  "buffers": [
    {
      "byteLength": 1215648,
      "uri": "scene.bin"
    }
  ],
  "extensionsUsed": [
    "KHR_materials_clearcoat"
  ],
  "images": [
    {
      "uri": "textures/Material_baseColor.png"
    },
    {
      "uri": "textures/Material_metallicRoughness.png"
    },
    {
      "uri": "textures/Material_clearcoat_roughness.png"
    },
    {
      "uri": "textures/Material_clearcoat_normal.png"
    }
  ],
  "materials": [
    {
      "doubleSided": true,
      "extensions": {
        "KHR_materials_clearcoat": {
          "clearcoatFactor": 0.6907393293,
          "clearcoatNormalTexture": {
            "index": 3,
            "scale": 0.4041539634
          },
          "clearcoatRoughnessFactor": 0.5078125,
          "clearcoatRoughnessTexture": {
            "index": 2
          }
        }
      },
      "name": "Material",
      "occlusionTexture": {
        "index": 1
      },
      "pbrMetallicRoughness": {
        "baseColorTexture": {
          "index": 0
        },
        "metallicFactor": 0.6907393293,
        "metallicRoughnessTexture": {
          "index": 1
        }
      }
    }
  ],
  "meshes": [
    {
      "name": "DefaultCube.011_Material_0",
      "primitives": [
        {
          "attributes": {
            "NORMAL": 1,
            "POSITION": 0,
            "TEXCOORD_0": 2
          },
          "indices": 3,
          "material": 0,
          "mode": 4
        }
      ]
    }
  ],
  "nodes": [
    {
      "children": [
        1
      ],
      "matrix": [
        1.0,
        0.0,
        0.0,
        0.0,
        0.0,
        2.220446049250313e-16,
        -1.0,
        0.0,
        0.0,
        1.0,
        2.220446049250313e-16,
        0.0,
        0.0,
        0.0,
        0.0,
        1.0
      ],
      "name": "Sketchfab_model"
    },
    {
      "children": [
        2
      ],
      "matrix": [
        1.0,
        0.0,
        0.0,
        0.0,
        0.0,
        0.0,
        1.0,
        0.0,
        0.0,
        -1.0,
        0.0,
        0.0,
        0.0,
        0.0,
        0.0,
        1.0
      ],
      "name": "a7759db7cd814d0d9bb2b9d00b559693.fbx"
    },
    {
      "children": [
        3
      ],
      "name": "Object_2"
    },
    {
      "children": [
        4
      ],
      "name": "RootNode"
    },
    {
      "children": [
        5
      ],
      "name": "DefaultCube.011",
      "rotation": [
        -0.31041839718818665,
        0.4626849889755249,
        -0.4333420991897583,
        0.7083626389503479
      ],
      "scale": [
        100.0,
        99.99999237060547,
        100.0
      ],
      "translation": [
        -24.218706130981445,
        14.216995239257813,
        -34.4218635559082
      ]
    },
    {
      "mesh": 0,
      "name": "DefaultCube.011_Material_0"
    }
  ],
  "samplers": [
    {
      "magFilter": 9729,
      "minFilter": 9987,
      "wrapS": 10497,
      "wrapT": 10497
    }
  ],
  "scene": 0,
  "scenes": [
    {
      "name": "Sketchfab_Scene",
      "nodes": [
        0
      ]
    }
  ],
  "textures": [
    {
      "sampler": 0,
      "source": 0
    },
    {
      "sampler": 0,
      "source": 1
    },
    {
      "sampler": 0,
      "source": 2
    },
    {
      "sampler": 0,
      "source": 3
    }
  ]
}
